<svg id="Layer_1" data-name="Layer 1" xmlns="http://www.w3.org/2000/svg" viewBox="0 0 583.84 310.81"><defs><style>.cls-1{fill:#231f20;}</style></defs><path class="cls-1" d="M670.09,701.57h5.31V672.13h.48l28.89,29.44h7.64L682,670.68l28.8-26.07h-7.32l-27.6,25.1h-.48v-25.1h-5.31Zm-41.84,0h31.86v-4.83H633.56V644.61h-5.31Zm-25.5-20H576.6l13.28-31.22Zm-40.23,20h5.56l6.43-15.12h30.17l6.2,15.12h6l-24-57h-5.47Zm-27.51,0h5.31l21.64-57h-5.63l-18.5,50-18.35-50h-5.71Zm-88.26,0h5.31v-27H462l16,27h6l-16.57-27.35a30.68,30.68,0,0,0,4.91-1.13,14.76,14.76,0,0,0,4.7-2.45,13.06,13.06,0,0,0,3.55-4.31,14.46,14.46,0,0,0,1.4-6.76,14.8,14.8,0,0,0-1.2-6.27,13.38,13.38,0,0,0-3.06-4.26,13,13,0,0,0-4.18-2.58,26,26,0,0,0-4.59-1.29,30.48,30.48,0,0,0-4.18-.48c-1.29-.05-2.31-.08-3.06-.08h-15Zm5.31-52.13h11.27a18.76,18.76,0,0,1,6.8,1,11.36,11.36,0,0,1,4.06,2.58,8.23,8.23,0,0,1,2,3.3,10.2,10.2,0,0,1,0,6.43,8.23,8.23,0,0,1-2,3.3,11.21,11.21,0,0,1-4.06,2.57,18.53,18.53,0,0,1-6.8,1.05H452.06Zm-57.84,52.13h36.12v-4.83H399.53v-22.2h27.68v-4.83H399.53V649.44h29.52v-4.83H394.22Zm-56.64-52.13h10.94a38,38,0,0,1,10.54,1.41,24,24,0,0,1,8.53,4.3,20.22,20.22,0,0,1,5.71,7.36,27.82,27.82,0,0,1,0,21.16,20.22,20.22,0,0,1-5.71,7.36,24.17,24.17,0,0,1-8.53,4.31,38.36,38.36,0,0,1-10.54,1.4H337.58Zm-5.31,52.13h17.62a38,38,0,0,0,12.55-1.81,28.18,28.18,0,0,0,8.57-4.62,22.93,22.93,0,0,0,5.39-6.24,30.28,30.28,0,0,0,4.06-12.23c.16-1.69.24-2.88.24-3.58s-.08-1.89-.24-3.58a30.28,30.28,0,0,0-4.06-12.23,22.75,22.75,0,0,0-5.39-6.23,28,28,0,0,0-8.57-4.63,38,38,0,0,0-12.55-1.81H332.27Zm-89.22,0h5.31V651.69h.16l34.68,49.88H290v-57h-5.31v49.88h-.16l-34.67-49.88h-6.84Zm-25.51-20H191.4l13.27-31.22Zm-40.22,20h5.55l6.44-15.12h30.17l6.19,15.12h6l-24-57h-5.47Zm-27.52,0h5.32l21.64-57h-5.64l-18.5,50-18.34-50h-5.72Z" transform="translate(-128.56 -439.97)"/><path class="cls-1" d="M367.35,505.8a9.4,9.4,0,0,0,.85-1.06q12.65-21,25.27-42.06a2.42,2.42,0,0,0,.14-2.79,29.3,29.3,0,0,0-2.36-3.2,23.27,23.27,0,0,0-2-1.93l.19-.3,6.85.5c-.17-1.67-.33-3.15-.49-4.77,2.11.17,4.22.35,6.33.49a2.9,2.9,0,0,0,1.25-.07c3-1.23,5.92-2.54,8.89-3.77a2.11,2.11,0,0,0,1.46-2.9,5.91,5.91,0,0,1,0-1.58l6.59,2.4V440c.5.35.79.53,1.06.74a22,22,0,0,0,13,5c12.15.64,24.32,1.23,36.34,3.32a68.45,68.45,0,0,1,18.19,5.41c5.21,2.51,9.59,6,12.43,11.15a11.73,11.73,0,0,1,1.3,3.45c.34,1.76-.51,2.83-2.3,2.82a36.27,36.27,0,0,1-4.19-.63c-.72-.1-1.63-.38-2.19-.07-3.95,2.19-8.16,2-12.35,1.3-10.26-1.61-20.3-.33-30.28,2-4.57,1.07-9.13,2.14-13.65,3.36s-9.11.73-13.62-.37c-.45-.11-.91-.2-1.47-.32-1.5,3.53-3,7-4.44,10.45-4.52,10.82-9,21.68-13.56,32.48-1.25,3-1.33,6.05-1.73,9.11-1.69,12.74-3.28,25.5-4.91,38.25q-1.92,15-3.88,30a2.05,2.05,0,0,1-.78,1.36c-4.46,2.8-9,5.54-13.45,8.29a2.52,2.52,0,0,1-.53.17l-.14-62.11-.3-.13c-.27.4-.56.79-.81,1.2q-4.8,7.8-9.6,15.59a10.66,10.66,0,0,1-.95,1.18ZM486,465.67c-.49-.28-1-.53-1.46-.85-2.32-1.55-4.77-2.95-6.93-4.71-3-2.45-2.87-4.91.34-7.34-3.11-.71-6-1.57-9-2-11.78-1.77-23.67-2.29-35.55-2.83a3.33,3.33,0,0,0-3.27,2.31c-.74,1.65-1.38,3.35-2,5-1.8,4.66-.94,6.3,4,6.76s10.21.64,15.32.81c12.87.43,25.78.29,38.54,2.83m-63.37-14.75c-3.25,0-6.15,1.39-9.17,2.34a8.31,8.31,0,0,0-5.69,5,5.83,5.83,0,0,1-2.68,2.53,2.34,2.34,0,0,0-1.4,1.55,52.38,52.38,0,0,0-1.93,18,51.77,51.77,0,0,0,4.19,17.74,2.47,2.47,0,0,0,2.54,1.67,3.11,3.11,0,0,0,2.21-1.38c3.14-7,6.16-14,9.15-21.1a2.46,2.46,0,0,0-.21-1.79,9.36,9.36,0,0,1-1-6c.52-3.28,2.06-6.12,3.64-9,1-1.83,2.11-3.62,3-5.52a2.77,2.77,0,0,0-2.64-4.14m69.18,18.95c0-.18,0-.36,0-.54-3.58-.75-7.15-1.61-10.75-2.25-9-1.58-18.08-1.71-27.18-1.84-8-.1-15.91.06-23.81-1.13a3.94,3.94,0,0,0-1.41.09c-1.06.25-1.5,1-.9,1.91,1.67,2.68,1.25,5.41.25,8.12-.43,1.19-.11,1.84,1,1.86a40,40,0,0,0,7.59-.13c4.38-.75,8.69-1.87,13-2.95a90.83,90.83,0,0,1,34.78-2.28,13.53,13.53,0,0,0,7.35-.86m-94.67,59a14.37,14.37,0,0,0-2.25.54c-2.85,1.29-5.64,2.72-8.53,3.89a2.06,2.06,0,0,0-1.47,2.82c1.18,4.61,2.33,9.24,3.51,13.85.05.19.26.34.53.68a108.62,108.62,0,0,0,8.21-21.78" transform="translate(-128.56 -439.97)"/><path class="cls-1" d="M416.21,456.21a2.9,2.9,0,0,1,3-2.67,2.8,2.8,0,0,1-.25,5.59,2.88,2.88,0,0,1-2.73-2.92" transform="translate(-128.56 -439.97)"/><path class="cls-1" d="M198,724.55h3.47v10.62h13.26V724.55h3.47v25.58h-3.47V738.42H201.47v11.71H198Z" transform="translate(-128.56 -439.97)"/><path class="cls-1" d="M237.43,750.78a13.77,13.77,0,0,1-5.39-1,12.49,12.49,0,0,1-4.21-2.83,13.28,13.28,0,0,1-2.75-4.27,14.74,14.74,0,0,1,0-10.62,13.28,13.28,0,0,1,2.75-4.27,12.49,12.49,0,0,1,4.21-2.83,14.59,14.59,0,0,1,10.77,0,12.49,12.49,0,0,1,4.21,2.83,13.12,13.12,0,0,1,2.75,4.27,14.74,14.74,0,0,1,0,10.62,13.12,13.12,0,0,1-2.75,4.27,12.49,12.49,0,0,1-4.21,2.83A13.72,13.72,0,0,1,237.43,750.78Zm0-3.25a9.29,9.29,0,0,0,7-3,9.66,9.66,0,0,0,1.95-3.23,11.87,11.87,0,0,0,0-7.92,9.66,9.66,0,0,0-1.95-3.23,9.85,9.85,0,0,0-11-2.19,9.28,9.28,0,0,0-3,2.19,9.52,9.52,0,0,0-2,3.23,11.87,11.87,0,0,0,0,7.92,9.52,9.52,0,0,0,2,3.23,9.28,9.28,0,0,0,3,2.19A9.47,9.47,0,0,0,237.43,747.53Z" transform="translate(-128.56 -439.97)"/><path class="cls-1" d="M262,727.8h-8.24v-3.25h19.95v3.25h-8.24v22.33H262Z" transform="translate(-128.56 -439.97)"/><path class="cls-1" d="M278.3,724.55h16.51v3.25h-13v7.63h12.14v3.25H281.77v8.2h13.69v3.25H278.3Z" transform="translate(-128.56 -439.97)"/><path class="cls-1" d="M301.28,724.55h3.47v22.33H316.5v3.25H301.28Z" transform="translate(-128.56 -439.97)"/><path class="cls-1" d="M321.7,744.79a5.65,5.65,0,0,0,2.41,2.07,7.09,7.09,0,0,0,3,.67,6.14,6.14,0,0,0,1.77-.27,5.51,5.51,0,0,0,1.65-.81,4.44,4.44,0,0,0,1.21-1.34,3.57,3.57,0,0,0,.47-1.84,2.78,2.78,0,0,0-.94-2.26,8.09,8.09,0,0,0-2.33-1.3c-.93-.35-1.94-.69-3-1a12.41,12.41,0,0,1-3-1.36,7.54,7.54,0,0,1-2.34-2.33,7.34,7.34,0,0,1-.93-4,6.78,6.78,0,0,1,2-4.7,8.7,8.7,0,0,1,2.69-1.75,10.05,10.05,0,0,1,4-.7,13.65,13.65,0,0,1,4,.58,6.81,6.81,0,0,1,3.36,2.34l-2.82,2.57a4.73,4.73,0,0,0-1.84-1.63,5.84,5.84,0,0,0-2.71-.61,6.6,6.6,0,0,0-2.4.38,4.33,4.33,0,0,0-1.54,1,3.33,3.33,0,0,0-.81,1.29,3.87,3.87,0,0,0-.24,1.26,3.26,3.26,0,0,0,.94,2.5,7.62,7.62,0,0,0,2.33,1.41,28.67,28.67,0,0,0,3,1,12.87,12.87,0,0,1,3,1.21,7,7,0,0,1,2.33,2.1,6.14,6.14,0,0,1,.94,3.63,7.59,7.59,0,0,1-.7,3.32,7.38,7.38,0,0,1-1.9,2.5,8.37,8.37,0,0,1-2.82,1.55,10.92,10.92,0,0,1-3.47.54,12.6,12.6,0,0,1-4.66-.86,7.6,7.6,0,0,1-3.5-2.68Z" transform="translate(-128.56 -439.97)"/><path class="cls-1" d="M375.33,750.13h-4.66l-3.14-3.39a13.05,13.05,0,0,1-3.46,3,8.64,8.64,0,0,1-4.39,1,10.15,10.15,0,0,1-3.75-.63,7.44,7.44,0,0,1-2.63-1.68,6.65,6.65,0,0,1-1.51-2.37,7.61,7.61,0,0,1-.49-2.72,6,6,0,0,1,.47-2.44,7.24,7.24,0,0,1,1.26-2,9.75,9.75,0,0,1,1.86-1.62,15.41,15.41,0,0,1,2.23-1.27,18.93,18.93,0,0,1-2.12-2.67,5.89,5.89,0,0,1-.88-3.26,5.54,5.54,0,0,1,.56-2.56,5.44,5.44,0,0,1,1.5-1.88,6.65,6.65,0,0,1,2.17-1.16,8.48,8.48,0,0,1,2.6-.4,8.6,8.6,0,0,1,2.55.37,6.2,6.2,0,0,1,2.11,1.08,5.12,5.12,0,0,1,1.43,1.81,5.72,5.72,0,0,1,.52,2.53,4.93,4.93,0,0,1-.47,2.18,6.74,6.74,0,0,1-1.23,1.81,9.46,9.46,0,0,1-1.7,1.44,16.31,16.31,0,0,1-1.91,1.14l5.06,5.28,3.22-5.24h3.93l-4.95,7.66Zm-16-12.07c-.51.29-1,.61-1.54.94a8.62,8.62,0,0,0-1.39,1.12,5.34,5.34,0,0,0-1,1.4,4,4,0,0,0-.37,1.75,4,4,0,0,0,.39,1.75,4.73,4.73,0,0,0,1.09,1.43,5.2,5.2,0,0,0,1.53,1,4.91,4.91,0,0,0,1.79.34,5.22,5.22,0,0,0,1.75-.29,7.14,7.14,0,0,0,1.52-.74,8.18,8.18,0,0,0,1.3-1,15.36,15.36,0,0,0,1.11-1.19Zm4.8-8.16a2.49,2.49,0,0,0-.87-2,3.32,3.32,0,0,0-2.24-.74,3.78,3.78,0,0,0-2.38.78,2.65,2.65,0,0,0-1,2.22,3.2,3.2,0,0,0,.23,1.23,5.64,5.64,0,0,0,.62,1.12,9,9,0,0,0,.81,1q.44.47.87.9c.43-.24.88-.5,1.35-.79a8.42,8.42,0,0,0,1.29-1,5,5,0,0,0,.95-1.21A3,3,0,0,0,364.09,729.9Z" transform="translate(-128.56 -439.97)"/><path class="cls-1" d="M390.83,724.55h9a10.44,10.44,0,0,1,4.05.67,6.84,6.84,0,0,1,2.51,1.69,5.86,5.86,0,0,1,1.29,2.32,9.52,9.52,0,0,1,.36,2.47,6.6,6.6,0,0,1-.44,2.37,6.66,6.66,0,0,1-1.24,2.06,7.33,7.33,0,0,1-2,1.55,6.67,6.67,0,0,1-2.62.78L409,750.13h-4.33l-6.51-11.27H394.3v11.27h-3.47Zm3.47,11.27h4.56a12.17,12.17,0,0,0,2-.16,5.28,5.28,0,0,0,1.77-.6,3.24,3.24,0,0,0,1.25-1.24,4.27,4.27,0,0,0,.47-2.12,4.2,4.2,0,0,0-.47-2.11,3.26,3.26,0,0,0-1.25-1.25,5.06,5.06,0,0,0-1.77-.59,12.18,12.18,0,0,0-2-.17H394.3Z" transform="translate(-128.56 -439.97)"/><path class="cls-1" d="M413.82,724.55h16.51v3.25h-13v7.63h12.14v3.25H417.29v8.2H431v3.25H413.82Z" transform="translate(-128.56 -439.97)"/><path class="cls-1" d="M437.56,744.79a5.69,5.69,0,0,0,2.4,2.07,7.17,7.17,0,0,0,3,.67,6.14,6.14,0,0,0,1.77-.27,5.51,5.51,0,0,0,1.65-.81,4.57,4.57,0,0,0,1.21-1.34,3.57,3.57,0,0,0,.47-1.84,2.78,2.78,0,0,0-.94-2.26,8.23,8.23,0,0,0-2.33-1.3c-.93-.35-1.94-.69-3-1a12.48,12.48,0,0,1-3-1.36A7.62,7.62,0,0,1,436.4,735a7.34,7.34,0,0,1-.94-4,6.75,6.75,0,0,1,.49-2.38,6.68,6.68,0,0,1,1.54-2.32,8.58,8.58,0,0,1,2.69-1.75,10.05,10.05,0,0,1,4-.7,13.7,13.7,0,0,1,4,.58,6.81,6.81,0,0,1,3.36,2.34l-2.82,2.57a4.73,4.73,0,0,0-1.84-1.63,5.84,5.84,0,0,0-2.71-.61,6.66,6.66,0,0,0-2.41.38,4.37,4.37,0,0,0-1.53,1,3.33,3.33,0,0,0-.81,1.29,3.87,3.87,0,0,0-.24,1.26,3.22,3.22,0,0,0,.94,2.5,7.62,7.62,0,0,0,2.33,1.41,28.67,28.67,0,0,0,3,1,12.87,12.87,0,0,1,3,1.21,7,7,0,0,1,2.33,2.1,6.14,6.14,0,0,1,.94,3.63,7.59,7.59,0,0,1-.7,3.32,7.38,7.38,0,0,1-1.9,2.5,8.37,8.37,0,0,1-2.82,1.55,10.92,10.92,0,0,1-3.47.54,12.56,12.56,0,0,1-4.66-.86,7.6,7.6,0,0,1-3.5-2.68Z" transform="translate(-128.56 -439.97)"/><path class="cls-1" d="M463.15,727.8h-8.24v-3.25h19.95v3.25h-8.24v22.33h-3.47Z" transform="translate(-128.56 -439.97)"/><path class="cls-1" d="M484.14,724.55h3.15l10.95,25.58h-4.05l-2.57-6.32H479.44l-2.53,6.32h-4Zm6.22,16.22L485.59,729h-.07l-4.85,11.74Z" transform="translate(-128.56 -439.97)"/><path class="cls-1" d="M505.46,724.55v15.68a10,10,0,0,0,.33,2.48,7.33,7.33,0,0,0,1.08,2.36,5.9,5.9,0,0,0,2,1.78,7.11,7.11,0,0,0,6.07,0,5.81,5.81,0,0,0,2-1.78,7.15,7.15,0,0,0,1.09-2.36,10.42,10.42,0,0,0,.32-2.48V724.55h3.47v16.22a10.43,10.43,0,0,1-.76,4.07,9.55,9.55,0,0,1-2.1,3.16,9.17,9.17,0,0,1-3.14,2.06,10.92,10.92,0,0,1-7.8,0,9.21,9.21,0,0,1-3.15-2.06,9.71,9.71,0,0,1-2.1-3.16,10.61,10.61,0,0,1-.75-4.07V724.55Z" transform="translate(-128.56 -439.97)"/><path class="cls-1" d="M528.81,724.55h9a10.48,10.48,0,0,1,4.05.67,6.92,6.92,0,0,1,2.51,1.69,5.84,5.84,0,0,1,1.28,2.32,9.11,9.11,0,0,1,.36,2.47,6.59,6.59,0,0,1-.43,2.37,6.69,6.69,0,0,1-1.25,2.06,7,7,0,0,1-2,1.55,6.62,6.62,0,0,1-2.62.78L547,750.13h-4.34l-6.5-11.27h-3.87v11.27h-3.47Zm3.47,11.27h4.55a12.29,12.29,0,0,0,2-.16,5.44,5.44,0,0,0,1.77-.6,3.31,3.31,0,0,0,1.25-1.24,4.27,4.27,0,0,0,.47-2.12,4.2,4.2,0,0,0-.47-2.11,3.33,3.33,0,0,0-1.25-1.25,5.21,5.21,0,0,0-1.77-.59,12.3,12.3,0,0,0-2-.17h-4.55Z" transform="translate(-128.56 -439.97)"/><path class="cls-1" d="M559.82,724.55H563l10.95,25.58h-4l-2.56-6.32H555.12l-2.53,6.32h-4.05ZM566,740.77,561.26,729h-.07l-4.84,11.74Z" transform="translate(-128.56 -439.97)"/><path class="cls-1" d="M578.14,724.55h4.55l14.1,21h.07v-21h3.47v25.58h-4.41l-14.24-21h-.07v21h-3.47Z" transform="translate(-128.56 -439.97)"/><path class="cls-1" d="M613.16,727.8h-8.24v-3.25h19.94v3.25h-8.23v22.33h-3.47Z" transform="translate(-128.56 -439.97)"/><path class="cls-1" d="M630.21,744.79a5.65,5.65,0,0,0,2.41,2.07,7.09,7.09,0,0,0,3,.67,6.26,6.26,0,0,0,1.78-.27,5.35,5.35,0,0,0,1.64-.81,4.44,4.44,0,0,0,1.21-1.34,3.57,3.57,0,0,0,.47-1.84,2.75,2.75,0,0,0-.94-2.26,8.09,8.09,0,0,0-2.33-1.3c-.93-.35-1.94-.69-3-1a12.58,12.58,0,0,1-3-1.36,7.4,7.4,0,0,1-2.33-2.33,7.25,7.25,0,0,1-.94-4,6.9,6.9,0,0,1,2-4.7,8.7,8.7,0,0,1,2.69-1.75,10.05,10.05,0,0,1,4-.7,13.6,13.6,0,0,1,4,.58,6.81,6.81,0,0,1,3.36,2.34l-2.82,2.57a4.66,4.66,0,0,0-1.84-1.63,5.82,5.82,0,0,0-2.71-.61,6.64,6.64,0,0,0-2.4.38,4.42,4.42,0,0,0-1.54,1,3.58,3.58,0,0,0-.81,1.29,3.87,3.87,0,0,0-.24,1.26,3.26,3.26,0,0,0,.94,2.5,7.74,7.74,0,0,0,2.33,1.41,28.67,28.67,0,0,0,3,1,13,13,0,0,1,3,1.21,7.19,7.19,0,0,1,2.33,2.1,6.21,6.21,0,0,1,.94,3.63,7.59,7.59,0,0,1-.71,3.32,7.38,7.38,0,0,1-1.9,2.5,8.37,8.37,0,0,1-2.82,1.55,10.86,10.86,0,0,1-3.46.54,12.61,12.61,0,0,1-4.67-.86,7.65,7.65,0,0,1-3.5-2.68Z" transform="translate(-128.56 -439.97)"/></svg>